<mxfile host="app.diagrams.net" modified="2020-10-21T08:43:25.444Z" agent="5.0 (Macintosh; Intel Mac OS X 10_12_6) AppleWebKit/537.36 (KHTML, like Gecko) Chrome/85.0.4183.121 Safari/537.36" etag="9sl5NMzEvNMqYeuPAf-p" version="13.7.3" type="github">
  <diagram id="tX7SVpQX2thatc8K__2B" name="Page-1">
    <mxGraphModel dx="786" dy="514" grid="1" gridSize="10" guides="1" tooltips="1" connect="1" arrows="1" fold="1" page="1" pageScale="1" pageWidth="827" pageHeight="1169" math="0" shadow="0">
      <root>
        <mxCell id="0" />
        <mxCell id="1" parent="0" />
        <mxCell id="8WcwUzKgJ43XEhIywC6m-6" style="edgeStyle=orthogonalEdgeStyle;rounded=0;orthogonalLoop=1;jettySize=auto;html=1;entryX=0;entryY=0.5;entryDx=0;entryDy=0;" edge="1" parent="1" source="8WcwUzKgJ43XEhIywC6m-1" target="8WcwUzKgJ43XEhIywC6m-2">
          <mxGeometry relative="1" as="geometry" />
        </mxCell>
        <mxCell id="8WcwUzKgJ43XEhIywC6m-1" value="点云数据" style="rounded=0;whiteSpace=wrap;html=1;" vertex="1" parent="1">
          <mxGeometry x="50" y="200" width="120" height="60" as="geometry" />
        </mxCell>
        <mxCell id="8WcwUzKgJ43XEhIywC6m-7" style="edgeStyle=orthogonalEdgeStyle;rounded=0;orthogonalLoop=1;jettySize=auto;html=1;entryX=0;entryY=0.5;entryDx=0;entryDy=0;" edge="1" parent="1" source="8WcwUzKgJ43XEhIywC6m-2" target="8WcwUzKgJ43XEhIywC6m-3">
          <mxGeometry relative="1" as="geometry" />
        </mxCell>
        <mxCell id="8WcwUzKgJ43XEhIywC6m-2" value="点云编码网络" style="rounded=0;whiteSpace=wrap;html=1;" vertex="1" parent="1">
          <mxGeometry x="210" y="200" width="120" height="60" as="geometry" />
        </mxCell>
        <mxCell id="8WcwUzKgJ43XEhIywC6m-8" style="edgeStyle=orthogonalEdgeStyle;rounded=0;orthogonalLoop=1;jettySize=auto;html=1;entryX=0;entryY=0.5;entryDx=0;entryDy=0;" edge="1" parent="1" source="8WcwUzKgJ43XEhIywC6m-3" target="8WcwUzKgJ43XEhIywC6m-4">
          <mxGeometry relative="1" as="geometry" />
        </mxCell>
        <mxCell id="8WcwUzKgJ43XEhIywC6m-9" style="edgeStyle=orthogonalEdgeStyle;rounded=0;orthogonalLoop=1;jettySize=auto;html=1;entryX=0.214;entryY=0;entryDx=0;entryDy=0;entryPerimeter=0;" edge="1" parent="1" source="8WcwUzKgJ43XEhIywC6m-3" target="8WcwUzKgJ43XEhIywC6m-5">
          <mxGeometry relative="1" as="geometry" />
        </mxCell>
        <mxCell id="8WcwUzKgJ43XEhIywC6m-3" value="特征编码网络" style="rounded=0;whiteSpace=wrap;html=1;" vertex="1" parent="1">
          <mxGeometry x="370" y="200" width="120" height="60" as="geometry" />
        </mxCell>
        <mxCell id="8WcwUzKgJ43XEhIywC6m-4" value="检测头网络" style="rounded=0;whiteSpace=wrap;html=1;" vertex="1" parent="1">
          <mxGeometry x="530" y="200" width="120" height="60" as="geometry" />
        </mxCell>
        <mxCell id="8WcwUzKgJ43XEhIywC6m-5" value="辅助网络" style="rounded=0;whiteSpace=wrap;html=1;" vertex="1" parent="1">
          <mxGeometry x="370" y="300" width="280" height="60" as="geometry" />
        </mxCell>
      </root>
    </mxGraphModel>
  </diagram>
</mxfile>
